<svg width="132" height="21" viewBox="0 0 132 21" fill="none" xmlns="http://www.w3.org/2000/svg">
<g clip-path="url(#clip0_1_17)">
<path d="M2.59842 12.9921C11.151 23.7327 25.8803 14.7822 35.8583 12.9921" stroke="#0A0A0A" stroke-width="3.47447" stroke-linecap="square"/>
<circle cx="20.342" cy="9.42857" r="7.52801" stroke="#0A0A0A" stroke-width="3.47447"/>
<path d="M52.2055 18.1918C50.8086 18.1918 49.579 17.8716 48.5168 17.2314C47.4545 16.5766 46.6251 15.6453 46.0285 14.4375C45.4319 13.2298 45.1336 11.7892 45.1336 10.1158C45.1336 8.45701 45.4246 7.02372 46.0067 5.81597C46.6033 4.59367 47.4327 3.65512 48.4949 3.00032C49.5572 2.33096 50.8013 1.99629 52.2273 1.99629C54.1481 1.99629 55.6396 2.47647 56.7018 3.43685C57.7641 4.39723 58.4552 5.72866 58.7754 7.43115L56.3089 7.56211C56.1052 6.49988 55.6687 5.67046 54.9993 5.07386C54.33 4.46271 53.406 4.15714 52.2273 4.15714C51.2815 4.15714 50.4594 4.39723 49.7609 4.87742C49.077 5.35761 48.5386 6.04151 48.1457 6.92914C47.7674 7.81676 47.5782 8.87899 47.5782 10.1158C47.5782 11.3527 47.7674 12.4149 48.1457 13.3026C48.5386 14.1902 49.0843 14.8668 49.7827 15.3324C50.4812 15.7981 51.2888 16.0309 52.2055 16.0309C53.4569 16.0309 54.4246 15.7035 55.1085 15.0487C55.8069 14.3793 56.2435 13.4626 56.4181 12.2985L58.8845 12.4295C58.6953 13.6081 58.317 14.6267 57.7495 15.4852C57.182 16.3438 56.4326 17.0131 55.5013 17.4933C54.5701 17.9589 53.4715 18.1918 52.2055 18.1918ZM65.3251 18.1044C64.2192 18.1044 63.2516 17.8571 62.4221 17.3623C61.5927 16.8676 60.9525 16.1619 60.5014 15.2451C60.0503 14.3284 59.8247 13.2589 59.8247 12.0366C59.8247 10.7998 60.0503 9.73024 60.5014 8.82806C60.9525 7.92589 61.5927 7.22744 62.4221 6.7327C63.2516 6.2234 64.2192 5.96876 65.3251 5.96876C66.431 5.96876 67.3986 6.2234 68.2281 6.7327C69.0575 7.22744 69.6977 7.92589 70.1488 8.82806C70.5999 9.73024 70.8254 10.7998 70.8254 12.0366C70.8254 13.2589 70.5999 14.3284 70.1488 15.2451C69.6977 16.1619 69.0575 16.8676 68.2281 17.3623C67.3986 17.8571 66.431 18.1044 65.3251 18.1044ZM65.3251 16.0964C66.3146 16.0964 67.0785 15.7399 67.6169 15.0269C68.1553 14.2993 68.4245 13.3026 68.4245 12.0366C68.4245 10.7706 68.1553 9.78117 67.6169 9.06816C67.0785 8.3406 66.3146 7.97682 65.3251 7.97682C64.3502 7.97682 63.5862 8.3406 63.0333 9.06816C62.4949 9.78117 62.2257 10.7706 62.2257 12.0366C62.2257 13.3026 62.4949 14.2993 63.0333 15.0269C63.5862 15.7399 64.3502 16.0964 65.3251 16.0964ZM75.9955 18.1044C74.7877 18.1044 73.8201 17.828 73.0925 17.275C72.3795 16.7221 72.023 15.9436 72.023 14.9396C72.023 13.9355 72.3213 13.157 72.9179 12.6041C73.5291 12.0366 74.4676 11.6292 75.7336 11.3818L79.7279 10.6179C79.7279 9.71569 79.5169 9.04633 79.0949 8.6098C78.6729 8.15871 78.0472 7.93317 77.2178 7.93317C76.4757 7.93317 75.8936 8.10051 75.4716 8.43518C75.0497 8.75531 74.7586 9.2355 74.5986 9.87575L72.2195 9.72296C72.4377 8.55887 72.9761 7.64214 73.8346 6.97279C74.7077 6.30343 75.8354 5.96876 77.2178 5.96876C78.7893 5.96876 79.9825 6.39074 80.7974 7.23471C81.6268 8.06413 82.0415 9.2355 82.0415 10.7488V15.267C82.0415 15.5434 82.0852 15.7399 82.1725 15.8563C82.2743 15.9581 82.4344 16.0091 82.6527 16.0091H83.0674V17.8425C82.9946 17.8571 82.8782 17.8716 82.7181 17.8862C82.5581 17.9007 82.3907 17.908 82.2161 17.908C81.7214 17.908 81.2921 17.828 80.9283 17.6679C80.5791 17.5078 80.3172 17.2459 80.1426 16.8821C79.968 16.5038 79.8807 16.0018 79.8807 15.3761L80.1207 15.4852C80.0043 15.9945 79.7497 16.4456 79.3568 16.8385C78.9785 17.2314 78.491 17.5442 77.8944 17.777C77.3124 17.9953 76.6794 18.1044 75.9955 18.1044ZM76.3665 16.271C77.065 16.271 77.6616 16.14 78.1563 15.8781C78.6511 15.6016 79.0367 15.2233 79.3132 14.7431C79.5896 14.2629 79.7279 13.7173 79.7279 13.1061V12.364L76.3229 13.0188C75.6244 13.1498 75.1297 13.3608 74.8387 13.6518C74.5622 13.9283 74.424 14.2848 74.424 14.7213C74.424 15.216 74.5913 15.6016 74.926 15.8781C75.2752 16.14 75.7554 16.271 76.3665 16.271ZM88.7553 18.1044C87.6639 18.1044 86.7399 17.9371 85.9833 17.6024C85.2412 17.2678 84.6664 16.8094 84.259 16.2273C83.8515 15.6307 83.6187 14.9468 83.5605 14.1756L85.9396 14.0665C86.056 14.7067 86.3325 15.216 86.769 15.5944C87.2056 15.9727 87.8677 16.1619 88.7553 16.1619C89.4828 16.1619 90.0576 16.0455 90.4796 15.8126C90.9016 15.5798 91.1126 15.2088 91.1126 14.6995C91.1126 14.423 91.0398 14.1902 90.8943 14.001C90.7633 13.7973 90.5014 13.63 90.1085 13.499C89.7157 13.3535 89.1336 13.2152 88.3624 13.0843C87.2129 12.866 86.3107 12.6114 85.6559 12.3203C85.0011 12.0293 84.5354 11.6583 84.259 11.2072C83.9825 10.7561 83.8443 10.2104 83.8443 9.57018C83.8443 8.50794 84.2371 7.64214 85.0229 6.97279C85.8232 6.30343 86.9728 5.96876 88.4715 5.96876C89.4756 5.96876 90.3195 6.14337 91.0034 6.4926C91.6873 6.82728 92.2185 7.28564 92.5968 7.86769C92.9897 8.43518 93.237 9.07544 93.3389 9.78844L90.9598 9.9194C90.887 9.51197 90.7415 9.16274 90.5232 8.87172C90.3195 8.56614 90.0431 8.33332 89.6938 8.17326C89.3446 7.99865 88.9299 7.91134 88.4497 7.91134C87.7076 7.91134 87.1546 8.05685 86.7909 8.34788C86.4271 8.6389 86.2452 9.01723 86.2452 9.48287C86.2452 9.8321 86.3252 10.1158 86.4853 10.3341C86.6599 10.5524 86.9364 10.7343 87.3147 10.8798C87.693 11.0107 88.1951 11.1272 88.8208 11.229C90.0285 11.4327 90.9743 11.6874 91.6582 11.9929C92.3421 12.284 92.8223 12.6477 93.0988 13.0843C93.3753 13.5208 93.5135 14.0519 93.5135 14.6776C93.5135 15.4052 93.3098 16.0236 92.9024 16.5329C92.4949 17.0422 91.9347 17.4351 91.2217 17.7116C90.5087 17.9735 89.6866 18.1044 88.7553 18.1044ZM99.2265 17.8425C98.1206 17.8425 97.3057 17.5879 96.7819 17.0786C96.2581 16.5693 95.9961 15.7763 95.9961 14.6995V3.50233H98.3098V14.5249C98.3098 15.0632 98.4262 15.4343 98.659 15.638C98.8918 15.8417 99.2483 15.9436 99.7285 15.9436H101.387V17.8425H99.2265ZM94.2282 8.12961V6.23068H101.387V8.12961H94.2282ZM107.532 18.1044C106.397 18.1044 105.415 17.8571 104.585 17.3623C103.77 16.8676 103.137 16.1619 102.686 15.2451C102.25 14.3284 102.031 13.2589 102.031 12.0366C102.031 10.8143 102.25 9.75206 102.686 8.84989C103.137 7.93317 103.77 7.22744 104.585 6.7327C105.4 6.2234 106.36 5.96876 107.466 5.96876C108.514 5.96876 109.438 6.21613 110.238 6.71087C111.039 7.19106 111.657 7.88951 112.094 8.80624C112.545 9.72296 112.77 10.8289 112.77 12.1239V12.7132H104.432C104.491 13.8482 104.789 14.6995 105.327 15.267C105.88 15.8345 106.622 16.1182 107.554 16.1182C108.237 16.1182 108.805 15.9581 109.256 15.638C109.707 15.3179 110.02 14.8886 110.195 14.3502L112.596 14.503C112.29 15.5798 111.686 16.4529 110.784 17.1222C109.896 17.777 108.812 18.1044 107.532 18.1044ZM104.432 10.9671H110.326C110.253 9.93395 109.955 9.17002 109.431 8.67528C108.921 8.18054 108.267 7.93317 107.466 7.93317C106.637 7.93317 105.953 8.19509 105.415 8.71893C104.891 9.22822 104.563 9.97761 104.432 10.9671ZM114.46 17.8425V6.23068H116.577L116.664 9.30825L116.468 9.24277C116.628 8.19509 116.948 7.43115 117.428 6.95096C117.923 6.47077 118.585 6.23068 119.414 6.23068H120.528V8.30422H119.414C118.832 8.30422 118.345 8.39881 117.952 8.58797C117.559 8.77714 117.261 9.06816 117.057 9.46104C116.868 9.85392 116.773 10.3632 116.773 10.9889V17.8425H114.46Z" fill="#0A0A0A"/>
</g>
<defs>
<clipPath id="clip0_1_17">
<rect width="132" height="20.2677" fill="white"/>
</clipPath>
</defs>
</svg>
